<svg width="268" height="101" viewBox="0 0 268 101" fill="none" xmlns="http://www.w3.org/2000/svg">
<rect width="268" height="80" rx="4" fill="#B1B9DD"/>
<path d="M105.533 44.584C105.533 46.12 105.981 47.4 106.877 48.36C107.773 49.32 109.053 49.768 110.717 49.768C112.317 49.768 113.597 49.32 114.557 48.36C115.453 47.4 115.965 46.12 115.965 44.584C115.965 43.048 115.453 41.768 114.557 40.808C113.661 39.848 112.381 39.336 110.781 39.336C109.117 39.336 107.837 39.848 106.941 40.808C105.981 41.768 105.533 43.048 105.533 44.584ZM129.283 44.584C129.283 46.12 129.731 47.4 130.627 48.36C131.523 49.32 132.803 49.768 134.467 49.768C136.067 49.768 137.347 49.32 138.307 48.36C139.203 47.4 139.715 46.12 139.715 44.584C139.715 43.048 139.203 41.768 138.307 40.808C137.411 39.848 136.131 39.336 134.531 39.336C132.867 39.336 131.587 39.848 130.691 40.808C129.731 41.768 129.283 43.048 129.283 44.584ZM153.033 44.584C153.033 46.12 153.481 47.4 154.377 48.36C155.273 49.32 156.553 49.768 158.217 49.768C159.817 49.768 161.097 49.32 162.057 48.36C162.953 47.4 163.465 46.12 163.465 44.584C163.465 43.048 162.953 41.768 162.057 40.808C161.161 39.848 159.881 39.336 158.281 39.336C156.617 39.336 155.337 39.848 154.441 40.808C153.481 41.768 153.033 43.048 153.033 44.584Z" fill="#19224D"/>
<path d="M268 100.5V70L242 74.5L268 100.5Z" fill="#B1B9DD"/>
</svg>
