<svg width="150" height="150" viewBox="0 0 150 150" fill="none" xmlns="http://www.w3.org/2000/svg">
<rect x="18.75" y="1.5" width="87.75" height="87.75" fill="#8ED0DE"/>
<rect x="72.75" y="89.25" width="58.5" height="58.5" fill="#F0E3DA"/>
<path d="M73.8684 77.9351V88.8703L60.4097 81.1315V70.1963L73.8684 77.9351Z" fill="#BFD6DB"/>
<path d="M54.8584 73.3926C47.2879 77.7667 35.0068 77.7667 27.4363 73.3926C23.5669 71.2056 21.7163 68.3456 21.7163 65.3174V76.2526C21.7163 79.1126 23.5669 81.9725 27.4363 84.3278C35.0068 88.7019 47.2879 88.7019 54.8584 84.3278L60.5784 80.9631V70.0279L54.8584 73.3926Z" fill="#96B4BD"/>
<path d="M45.6052 46.8115L37.0253 51.8585L32.8195 54.2138L33.4924 54.5503C29.7913 58.7561 30.9689 64.1396 37.0253 67.6725C43.25 71.2054 52.3346 71.8784 59.7369 69.6913L60.4098 70.0278L54.6899 73.3925C47.1194 77.7666 34.8383 77.7666 27.2677 73.3925C19.6972 69.0184 19.6972 61.7843 27.2677 57.4103L45.6052 46.8115Z" fill="#D3E6EA"/>
<path d="M121.31 82.1407L102.973 92.9077C102.468 93.2442 101.795 93.5806 101.291 93.7489C93.5519 97.2818 82.4484 96.9453 75.5508 92.9077C68.485 88.8701 67.9803 82.4772 73.8685 78.1031L60.4098 70.3643L59.7368 70.0279C52.5028 72.2149 43.2499 71.542 37.0252 68.0091C30.8006 64.4762 28.95 58.7562 32.8194 54.5503L37.0252 52.1951L45.6052 47.1481L54.3533 42.101L55.3627 41.4281C63.6062 37.054 76.0555 37.2222 83.7943 41.7646L122.656 64.1397C130.732 68.8502 130.9 76.4208 122.825 81.1313L121.31 82.1407ZM68.6532 59.7656C70.3356 60.775 73.1955 60.775 74.8779 59.7656C76.5602 58.7562 76.5602 57.0739 74.8779 56.0645L71.345 54.0456L74.8779 52.0268C76.5602 51.0174 76.5602 49.3351 74.8779 48.3257C73.1955 47.3163 70.3356 47.3163 68.6532 48.3257L65.1203 50.3445L61.5874 48.3257C59.9051 47.3163 57.0451 47.3163 55.3627 48.3257C53.6804 49.3351 53.6804 51.0174 55.3627 52.0268L58.8957 54.0456L55.3627 56.0645C53.6804 57.0739 53.6804 58.7562 55.3627 59.7656C57.0451 60.775 59.9051 60.775 61.5874 59.7656L65.1203 57.7468L68.6532 59.7656Z" fill="#D3E6EA"/>
<path d="M122.824 81.2999L121.479 82.1411L103.141 92.908L95.7388 97.1139C88.1682 101.488 75.8872 101.488 68.3166 97.1139C64.4473 94.9268 62.5967 92.0669 62.5967 89.0386V99.9739C62.5967 102.834 64.4473 105.862 68.3166 108.049C75.8872 112.423 88.1682 112.423 95.7388 108.049L103.141 103.843L121.479 93.0763L122.824 92.2351C126.862 89.8798 128.881 86.8516 128.881 83.8234V72.8882C128.881 75.9164 126.862 78.9446 122.824 81.2999Z" fill="#96B4BD"/>
<path d="M103.141 92.7394L95.7391 97.1135C88.1685 101.488 75.8874 101.488 68.3169 97.1135C60.7464 92.7394 60.5782 85.5054 68.1487 81.1313L73.8686 77.7666H74.0369C68.1487 82.1407 68.6534 88.5336 75.7192 92.5712C82.785 96.6088 93.7202 96.9453 101.459 93.4124H101.627C101.964 93.4124 102.637 93.0759 103.141 92.7394Z" fill="#D3E6EA"/>
<path d="M97.5896 68.009C95.0661 66.6632 91.365 66.6632 89.1779 67.8408C89.1779 67.8408 89.1779 67.8408 89.0097 68.009H87.4956V70.3643C87.4956 71.2055 88.0003 72.0466 89.1779 72.7196C91.5332 74.0654 95.2344 74.0654 97.5896 72.7196C98.7673 72.0466 99.272 71.2055 99.272 70.3643V68.009H97.5896Z" fill="#3C90D2"/>
<path d="M114.245 68.0092H112.563C112.563 68.0092 112.563 68.0092 112.394 67.8409C110.039 66.4951 106.338 66.4951 103.983 67.8409C103.983 67.8409 103.983 67.8409 103.814 68.0092H102.3V70.3645C102.3 71.2056 102.805 72.0468 103.983 72.7197C106.338 74.0656 110.039 74.0656 112.394 72.7197C113.572 72.0468 114.077 71.2056 114.077 70.3645V68.0092H114.245Z" fill="#FF7300"/>
<path d="M114.245 76.7572H112.563C112.563 76.7572 112.563 76.7572 112.394 76.589C110.039 75.2431 106.338 75.2431 103.983 76.589C103.983 76.589 103.814 76.589 103.814 76.7572H102.3V79.1125C102.3 79.9537 102.973 80.7948 103.983 81.4678C106.338 82.8137 110.039 82.8137 112.394 81.4678C113.572 80.7948 114.077 79.9537 114.077 79.1125V76.7572H114.245Z" fill="#CC2E09"/>
<path d="M97.4213 65.6539C99.7766 66.9998 99.7766 69.1869 97.4213 70.5327C95.066 71.8786 91.3649 71.8786 89.0096 70.5327C86.6543 69.1869 86.6543 66.9998 89.0096 65.6539C91.3649 64.3081 95.066 64.3081 97.4213 65.6539Z" fill="#24A3EA"/>
<path d="M112.562 65.6539C114.918 66.9998 114.918 69.1869 112.562 70.5327C110.207 71.8786 106.506 71.8786 104.151 70.5327C101.795 69.1869 101.795 66.9998 104.151 65.6539C106.506 64.3081 110.207 64.3081 112.562 65.6539Z" fill="#FFA700"/>
<path d="M99.272 76.7572H97.5897C97.5897 76.7572 97.5897 76.7572 97.4215 76.589C95.0662 75.2431 91.365 75.2431 89.0098 76.589C89.0098 76.589 89.0098 76.589 88.8415 76.7572H87.1592V79.1125C87.1592 79.9537 87.6639 80.7948 88.8415 81.4678C91.1968 82.8137 94.8979 82.8137 97.2532 81.4678C98.4309 80.7948 98.9356 79.9537 98.9356 79.1125V76.7572H99.272Z" fill="#8BBA0C"/>
<path d="M97.4213 74.2338C99.7766 75.5797 99.7766 77.7667 97.4213 79.1126C95.066 80.4585 91.3649 80.4585 89.0096 79.1126C86.6543 77.7667 86.6543 75.5797 89.0096 74.2338C91.3649 73.0562 95.2343 73.0562 97.4213 74.2338Z" fill="#9BDB08"/>
<path d="M112.562 74.2338C114.918 75.5797 114.918 77.7667 112.562 79.1126C110.207 80.4585 106.506 80.4585 104.151 79.1126C101.795 77.7667 101.795 75.5797 104.151 74.2338C106.506 73.0562 110.207 73.0562 112.562 74.2338Z" fill="#FF3700"/>
<path d="M76.2242 55.5598L72.1866 53.7093L74.8783 52.1952C75.8877 51.6904 76.2242 50.8493 76.056 50.1763V47.9893H73.5325C71.8501 47.4846 69.8313 47.6528 68.4854 48.494L67.1396 49.3352L64.4478 50.0081L61.7561 48.494C60.0737 47.4846 57.5502 47.4846 55.6997 48.3258L54.1855 47.6528V47.8211V50.1763C54.1855 50.8493 54.6903 51.5222 55.5314 52.0269L58.8961 54.0457L54.1855 55.7281V57.7469C54.1855 58.4198 54.522 59.261 55.5314 59.7657C57.2138 60.7751 60.0737 60.7751 61.7561 59.7657L65.289 57.7469L68.8219 59.7657C70.5042 60.7751 73.3642 60.7751 75.0466 59.7657C75.7195 59.261 76.2242 58.7563 76.2242 58.2516V55.5598Z" fill="#545454"/>
<path d="M74.878 46.1387C76.5603 47.1481 76.5603 48.8304 74.878 49.8398L71.3451 51.6904L74.878 53.7092C76.5603 54.7186 76.5603 56.4009 74.878 57.4103C73.1956 58.4197 70.3357 58.4197 68.6533 57.4103L65.1204 55.3915L61.5875 57.4103C59.9051 58.4197 57.0452 58.4197 55.3628 57.4103C53.6805 56.4009 53.6805 54.7186 55.3628 53.7092L58.8957 51.6904L55.3628 49.6716C53.6805 48.6622 53.6805 46.9798 55.3628 45.9704C57.0452 44.961 59.9051 44.961 61.5875 45.9704L65.1204 47.9892L68.6533 46.1387C70.3357 45.1293 73.1956 45.1293 74.878 46.1387Z" fill="#898989"/>
<path d="M89.6827 89.207C89.6827 91.8987 85.9816 93.9175 81.4393 93.9175C76.8969 93.9175 73.1958 91.7305 73.1958 89.207C73.1958 86.5152 76.8969 84.4964 81.4393 84.4964C85.9816 84.3282 89.6827 86.5152 89.6827 89.207Z" fill="#B6D5DC"/>
<path d="M48.2973 65.4859C48.2973 68.1777 44.5961 70.1965 40.0538 70.1965C35.3432 70.1965 31.6421 68.0095 31.6421 65.4859C31.6421 62.7942 35.3432 60.7754 39.8856 60.7754C44.5961 60.7754 48.2973 62.7942 48.2973 65.4859Z" fill="#B6D5DC"/>
</svg>
