<svg width="150" height="150" viewBox="0 0 150 150" fill="none" xmlns="http://www.w3.org/2000/svg">
<rect x="18.75" y="1.5" width="87.75" height="87.75" fill="#8ED0DE"/>
<rect x="72.75" y="89.25" width="58.5" height="58.5" fill="#F0E3DA"/>
<path d="M71.3473 61.0569C77.3564 52.9945 75.0317 41.0953 66.1549 34.4792C57.2782 27.8632 45.2108 29.0357 39.2017 37.098C33.1926 45.1604 35.5173 57.0597 44.3941 63.6757C53.2709 70.2918 65.3383 69.1193 71.3473 61.0569Z" fill="#FAB839"/>
<path d="M121.414 94.304C121.414 77.2006 107.437 55.1317 90.3333 45.2006C80.0344 39.1317 70.8391 38.9478 65.1379 43.5455L43.2529 56.2351L89.2298 124.649L114.057 110.12C118.655 107.361 121.414 101.844 121.414 94.304Z" fill="#146DBE"/>
<path d="M35.1606 72.4195C35.1606 89.5229 49.1376 111.592 66.241 121.523L74.8847 75.9137L66.241 59.362C49.1376 49.431 35.1606 55.3161 35.1606 72.4195Z" fill="#1493CC"/>
<path d="M66.2412 59.3618V121.523C83.3446 131.454 97.3216 125.569 97.3216 108.465C97.3216 91.1778 83.5285 69.2928 66.2412 59.3618Z" fill="#1493CC"/>
<path d="M50.0574 64.6951C41.046 68.5572 41.046 83.0859 50.0574 97.2468C54.4712 104.419 60.3562 109.936 66.2413 113.431L79.6665 97.0628L66.2413 67.4537C60.3562 63.9595 54.4712 62.856 50.0574 64.6951Z" fill="white"/>
<path d="M66.2417 113.431C72.1267 116.741 78.0118 118.028 82.4256 116.006C91.437 112.143 91.437 97.6148 82.4256 83.4539C78.0118 76.2815 72.1267 70.7643 66.2417 67.27V113.431Z" fill="#D5EBF1"/>
<path d="M67.7121 92.8329L64.7695 88.0513L76.3557 83.2697C77.6431 82.7179 79.1143 83.2697 79.666 84.3731C80.5856 85.8444 80.0339 87.6834 78.3787 88.4191L67.7121 92.8329Z" fill="#E96040"/>
<path d="M64.7705 90.9938L55.5751 76.4651C55.0234 75.5456 55.3912 74.4421 56.3108 74.0743C57.0464 73.7065 57.782 74.0743 58.3338 74.6261L67.8969 89.7065L64.7705 90.9938Z" fill="#4D4C4D"/>
<path d="M70.6551 92.8328C70.6551 90.442 68.816 87.4994 66.4252 86.0282C64.0344 84.7408 62.1953 85.4765 62.1953 87.8673C62.1953 90.2581 64.0344 93.2006 66.4252 94.6718C68.6321 96.1431 70.6551 95.2236 70.6551 92.8328Z" fill="#E96040"/>
<path d="M84.6317 47.5911V42.6256H75.4363C74.8846 42.6256 74.149 42.6256 73.5973 42.6256L64.9536 41.7061V48.3267C64.9536 48.3267 65.3214 50.1658 66.4249 51.0853C66.7927 51.4532 67.5283 51.2692 67.5283 51.6371V51.821C67.5283 52.0049 67.5283 52.1888 67.5283 52.3727V52.1888H68.2639C68.4479 54.0279 68.8157 53.66 69.3674 54.2118C71.5743 55.8669 75.6202 56.2347 78.5628 55.1313C80.2179 54.3957 81.1375 54.2118 81.1375 52.3727H80.5858V52.5566V52.3727V52.1888C82.4248 51.0853 84.4478 48.6945 84.4478 48.6945V47.5911H84.6317Z" fill="#1493CC"/>
<path d="M82.7923 38.9474C79.6658 36.3727 73.413 35.821 68.9992 37.4761C64.5854 39.1313 63.6659 42.6255 66.7923 45.2002C70.1027 47.7749 76.3555 48.3267 80.7693 46.6715C85.1831 44.8324 86.1026 41.5221 82.7923 38.9474Z" fill="#65C4EA"/>
<path d="M119.759 73.89C119.759 82.5336 113.506 89.706 105.23 91.1773C104.311 91.3612 103.207 91.3612 102.104 91.3612C92.3569 91.3612 84.6328 83.4532 84.6328 73.7061C84.6328 72.0509 84.8167 70.5797 85.1845 69.1084C87.2075 61.7521 94.0121 56.2349 102.104 56.2349C112.035 56.4188 119.759 64.3268 119.759 73.89Z" fill="#FAB839"/>
<path d="M118.103 69.2926C118.103 75.5454 113.138 80.5109 106.885 80.5109C100.632 80.5109 95.6665 75.5454 95.6665 69.2926C95.6665 63.0397 100.632 58.0742 106.885 58.0742C113.138 58.0742 118.103 63.0397 118.103 69.2926Z" fill="#FFED87"/>
<path d="M112.218 69.2928C112.218 72.2353 109.827 74.6261 106.885 74.6261C103.942 74.6261 101.551 72.2353 101.551 69.2928C101.551 66.3503 103.942 63.9595 106.885 63.9595C109.827 63.9595 112.218 66.3503 112.218 69.2928Z" fill="#D8901D"/>
</svg>
