<svg width="150" height="150" viewBox="0 0 150 150" fill="none" xmlns="http://www.w3.org/2000/svg">
<rect x="18.75" y="1.5" width="87.75" height="87.75" fill="#8ED0DE"/>
<rect x="72.75" y="89.25" width="58.5" height="58.5" fill="#F0E3DA"/>
<path d="M87.2645 128.225V138.006L42.75 112.256V105.269V102.275C42.75 100.878 42.9496 99.6799 43.3489 98.4822C43.9477 96.486 45.1454 95.0887 46.5427 94.2903C46.5427 94.2903 46.5427 94.2903 46.7423 94.2903C46.7423 94.2903 46.7423 94.2903 46.942 94.2903C47.1416 94.2903 47.1416 94.0906 47.3412 94.0906C47.5408 94.0906 47.7404 93.891 47.94 93.891H48.1397C48.3393 93.891 48.5389 93.891 48.7385 93.6914C48.7385 93.6914 48.7385 93.6914 48.9381 93.6914C49.1377 93.6914 49.537 93.6914 49.7366 93.6914C51.3335 93.6914 53.3297 94.2903 55.3259 95.2883L60.7155 98.6818C63.1109 100.678 65.7059 102.275 68.5006 103.273L75.0879 107.066C76.086 107.665 77.0841 108.463 78.0822 109.262C78.2818 109.461 78.4814 109.661 78.681 109.661C80.4776 111.457 82.2741 113.653 83.6714 115.849C83.871 116.048 83.871 116.448 84.0707 116.647C84.6695 117.845 85.2684 119.043 85.8672 120.44C86.0668 120.839 86.2664 121.239 86.2664 121.638C86.4661 122.037 86.4661 122.436 86.6657 122.835C86.8653 123.235 86.8653 123.634 86.8653 124.033C86.8653 124.432 87.0649 124.832 87.0649 125.031C87.0649 125.63 87.2645 126.229 87.2645 126.828C87.2645 126.828 87.2645 126.828 87.2645 127.027C87.2645 127.227 87.2645 127.427 87.2645 127.427C87.2645 127.626 87.2645 128.025 87.2645 128.225Z" fill="#65B1EB"/>
<path d="M60.7157 98.6818L55.1264 95.4879C53.1302 94.2902 51.3337 93.891 49.5371 93.891C49.3375 93.891 48.9383 93.891 48.7387 93.891H48.539C48.3394 93.891 48.1398 93.891 47.9402 94.0906H47.7406C47.541 94.0906 47.3413 94.2902 47.1417 94.2902C46.9421 94.2902 46.9421 94.4898 46.7425 94.4898C46.7425 94.4898 46.5429 94.4898 46.5429 94.6894H46.3433L54.1283 90.2979C55.7252 93.4917 57.921 96.486 60.7157 98.6818Z" fill="#448EDA"/>
<path d="M107.625 116.447V126.228L87.4641 138.006V128.225C87.4641 127.825 87.4641 127.626 87.4641 127.426C87.4641 127.227 87.4641 127.027 87.4641 127.027C87.4641 127.027 87.4641 127.027 87.4641 126.827C87.4641 126.228 87.2645 125.63 87.2645 125.031C87.0648 124.232 87.0648 123.434 86.6656 122.835C86.466 122.436 86.466 122.037 86.2664 121.637C86.0668 121.238 86.0668 120.839 85.8671 120.44C85.4679 119.242 84.8691 118.044 84.0706 116.647C83.871 116.447 83.871 116.048 83.6714 115.848C82.274 113.453 80.6771 111.457 78.6809 109.66C78.4813 109.461 78.2817 109.261 78.0821 109.261C77.084 108.463 76.0859 107.664 75.0878 107.065L68.5005 103.273C70.8959 104.071 73.2913 104.47 75.6867 104.47C83.0725 104.47 89.8595 100.678 94.4507 94.8887L95.2491 95.2879C102.036 99.2802 107.625 108.662 107.625 116.447Z" fill="#448EDA"/>
<path d="M96.4467 75.1271C96.4467 80.1175 95.0494 84.9083 92.654 88.7011C88.8613 94.6896 82.8728 98.4823 75.8862 98.4823C64.9073 98.4823 55.9245 88.7011 55.3257 76.5244C55.3257 76.1252 55.3257 75.726 55.3257 75.1271C55.3257 71.7336 55.9245 68.3402 57.1222 65.3459C60.1165 58.1597 66.105 52.9697 73.2912 51.9716C74.0897 51.772 74.6885 51.772 75.487 51.772C75.6866 51.772 75.6866 51.772 75.8862 51.772C84.2701 51.772 91.4563 57.3612 94.6502 65.3459C95.8479 68.3402 96.4467 71.7336 96.4467 75.1271Z" fill="#F4B779"/>
<path d="M91.0572 64.1481C90.4584 65.5454 89.8595 66.7431 89.0611 68.1404C85.2684 74.1289 79.2798 77.9216 72.2933 77.9216C63.9094 77.9216 56.7232 72.3323 53.5293 64.3477C56.5235 57.1615 62.512 51.9714 69.6982 50.9734C70.4967 50.7737 71.0956 50.7737 71.894 50.7737C72.0936 50.7737 72.0936 50.7737 72.2933 50.7737C80.6772 50.5741 87.8634 56.1634 91.0572 64.1481Z" fill="#434645"/>
<path d="M98.2432 75.1271C98.2432 80.1175 96.8459 84.9083 94.4505 88.7011C94.2509 88.7011 94.2509 88.7011 94.0512 88.7011C82.6731 88.7011 73.4907 78.321 73.4907 65.3459C73.4907 60.3555 74.888 55.5647 77.2834 51.772C77.4831 51.772 77.4831 51.772 77.6827 51.772C89.0608 51.9716 98.2432 62.3517 98.2432 75.1271Z" fill="#434645"/>
<path d="M79.2798 67.5415C82.4737 70.7354 84.4699 74.5281 85.4679 78.5204L85.2683 78.72C77.8825 85.9062 65.5063 85.1078 57.5216 77.1231C54.3277 73.9292 52.3316 70.1365 51.3335 66.1442L51.5331 65.9446C58.7193 58.7584 71.0955 59.3572 79.2798 67.5415Z" fill="#434645"/>
<path d="M82.0746 83.7105C80.2781 86.7047 80.2781 89.8986 81.875 90.8967C83.472 91.8948 86.2666 90.2978 88.0631 87.3036C89.8597 84.3093 89.8597 81.1154 88.2628 80.1174C86.6658 79.1193 83.8712 80.7162 82.0746 83.7105Z" fill="#F4B779"/>
<path d="M78.6809 55.3654C80.4775 56.9623 80.4775 59.3577 78.6809 60.755C76.8844 62.352 74.0898 62.352 72.2932 60.755C70.4967 59.1581 70.4967 56.7627 72.2932 55.3654C74.0898 53.9681 76.8844 53.9681 78.6809 55.3654Z" fill="#638081"/>
<path d="M66.5039 43.7881V53.9685C66.5039 55.5655 67.3024 56.7632 69.0989 57.9609C72.692 59.957 78.4809 59.957 82.074 57.9609C83.8706 56.9628 84.669 55.7651 84.669 54.1682H84.4694V43.9877H66.5039V43.7881Z" fill="#93B0B2"/>
<path d="M66.5039 40.394V51.1733C66.5039 52.7703 67.3024 53.968 69.0989 54.9661C72.692 56.9622 78.4809 56.9622 82.074 54.9661C83.8706 53.968 84.669 52.7703 84.669 51.1733H84.4694V40.394H66.5039Z" fill="#638081"/>
<path d="M66.5039 37.7993V48.5786C66.5039 50.1756 67.3024 51.3733 69.0989 52.3713C72.692 54.3675 78.4809 54.3675 82.074 52.3713C83.8706 51.3733 84.669 50.1756 84.669 48.5786H84.4694V37.7993H66.5039V37.7993Z" fill="#93B0B2"/>
<path d="M81.875 39.3961C85.4681 41.3923 85.4681 44.7858 81.875 46.9815C78.2819 48.9777 72.493 48.9777 68.8999 46.9815C65.3068 44.9854 65.3068 41.5919 68.8999 39.3961C72.493 37.2003 78.2819 37.3999 81.875 39.3961Z" fill="#93B0B2"/>
<path d="M81.875 34.8048C85.4681 36.801 85.4681 40.1945 81.875 42.3902C78.2819 44.3864 72.493 44.3864 68.8999 42.3902C65.3068 40.3941 65.3068 37.0006 68.8999 34.8048C72.493 32.609 78.2819 32.8086 81.875 34.8048Z" fill="#93B0B2"/>
<path d="M66.5039 35.603V46.3823C66.5039 47.9793 67.3024 49.177 69.0989 50.175C72.692 52.1712 78.4809 52.1712 82.074 50.175C83.8706 49.177 84.669 47.9793 84.669 46.3823H84.4694V35.603H66.5039V35.603Z" fill="#638081"/>
<path d="M66.5039 33.4077V44.187C66.5039 44.9855 67.3024 46.782 69.0989 47.7801C72.692 49.7763 78.4809 49.9759 82.074 47.7801C83.8706 46.782 84.669 44.9855 84.669 44.187H84.4694V33.4077H66.5039Z" fill="#93B0B2"/>
<path d="M75.0878 46.3825C84.7893 46.3825 92.654 38.5179 92.654 28.8163C92.654 19.1147 84.7893 11.25 75.0878 11.25C65.3862 11.25 57.5215 19.1147 57.5215 28.8163C57.5215 38.5179 65.3862 46.3825 75.0878 46.3825Z" fill="#F4CB1C"/>
<path d="M79.878 36.6017C82.2734 37.999 82.2734 40.3944 79.878 41.7917C77.4826 43.1891 73.4903 43.1891 71.0949 41.7917C68.6995 40.3944 68.6995 37.999 71.0949 36.6017C73.4903 35.2044 77.4826 35.2044 79.878 36.6017Z" fill="#FF9700"/>
<path d="M77.2834 25.6221H73.4907V41.9906H77.2834V25.6221Z" fill="#FF9700"/>
<path d="M83.6715 27.219C83.6715 31.6106 80.0784 35.2037 75.6868 35.2037C71.2952 35.2037 67.7021 31.6106 67.7021 27.219C67.7021 22.8275 71.2952 19.2344 75.6868 19.2344C80.0784 19.2344 83.6715 22.8275 83.6715 27.219Z" fill="#FF9700"/>
<path d="M80.4775 27.2195C80.4775 30.0141 78.2817 32.0103 75.6867 32.0103C72.8921 32.2099 70.6963 30.0141 70.6963 27.2195C70.6963 24.4249 72.8921 22.4287 75.4871 22.4287C78.2817 22.4287 80.4775 24.6245 80.4775 27.2195Z" fill="#F4CB1C"/>
<path d="M75.0875 24.6248C75.0875 27.8187 72.4925 30.4137 69.2987 30.4137C66.1048 30.4137 63.5098 27.8187 63.5098 24.6248C63.5098 21.431 66.1048 18.8359 69.2987 18.8359C72.4925 18.8359 75.0875 21.431 75.0875 24.6248Z" fill="white"/>
</svg>
