<svg width="151" height="428" viewBox="0 0 151 428" fill="none" xmlns="http://www.w3.org/2000/svg">
<path d="M102.15 91.3042C103.954 95.2061 105.466 99.2055 106.93 103.205C108.393 107.204 109.759 111.253 111.027 115.35C112.295 119.447 113.465 123.544 114.538 127.738L114.928 129.348L115.319 131.006L115.416 131.445L115.514 131.981L115.611 132.567C115.66 132.762 115.66 132.957 115.709 133.103C115.806 133.737 115.855 134.42 115.904 135.005C116.099 137.444 116.197 139.639 116.197 141.834C116.245 146.223 116.148 150.564 115.953 154.856C115.758 159.148 115.514 163.44 115.172 167.732C114.831 172.024 114.441 176.268 113.953 180.511C113.709 182.657 113.465 184.754 113.173 186.9C112.88 189.046 112.587 191.144 112.246 193.29L106.978 193.192C106.735 191.095 106.491 188.949 106.296 186.803C106.052 184.657 105.905 182.559 105.71 180.413C105.32 176.17 104.979 171.927 104.637 167.684L103.711 155.002C103.418 150.808 103.077 146.613 102.686 142.516C102.491 140.468 102.296 138.468 102.004 136.664C101.955 136.176 101.857 135.834 101.76 135.395C101.76 135.298 101.711 135.249 101.711 135.152L101.662 134.957L101.613 134.713L101.516 134.371L101.126 132.957L100.687 131.494C99.5648 127.494 98.3455 123.446 97.2725 119.349C96.1507 115.252 95.1264 111.155 94.151 107.009C93.1755 102.864 92.2976 98.7178 91.6147 94.4745L102.15 91.3042Z" fill="#6AACED"/>
<path fill-rule="evenodd" clip-rule="evenodd" d="M51.3765 115.642C51.1814 115.105 51.0351 114.569 50.9375 113.984C49.4256 107.643 49.2305 101.059 48.5964 94.6205C47.7673 86.2314 54.3029 78.9154 62.7407 78.9154H62.8871L64.3015 68.7705L80.2504 71.6969L79.3725 82.8661C85.6155 83.4513 94.98 81.9394 98.9795 85.5974L99.0282 85.6462C101.76 88.1336 103.223 91.7428 103.272 95.4009C103.32 100.571 102.003 105.107 102.003 105.107C101.857 105.643 102.589 107.204 102.686 107.838C102.93 108.814 103.125 109.838 103.272 110.813C103.564 112.52 103.71 114.276 103.759 116.032C103.857 118.91 103.564 121.739 102.881 124.519C101.857 128.762 99.7598 132.566 98.443 136.712C97.4187 139.931 97.1261 143.687 96.7847 147.101C96.3457 151.149 96.0043 155.246 95.9067 159.294C94.346 156.27 93.0779 153.441 92.3463 150.954H54.2054C54.498 150.954 54.1078 145.833 54.1078 145.491C53.6689 140.468 55.6198 135.493 55.7661 130.469C55.8637 125.201 52.9373 120.568 51.3765 115.642Z" fill="#6AACED"/>
<path opacity="0.1959" d="M51.6207 114.618L49.9624 102.327" stroke="black" stroke-width="3"/>
<path fill-rule="evenodd" clip-rule="evenodd" d="M79.2749 82.8665L80.4455 92.865C80.4455 92.865 62.4481 86.8659 63.4235 74.3799L79.2749 82.8665Z" fill="#0074DD"/>
<path fill-rule="evenodd" clip-rule="evenodd" d="M80.4455 68.7222C80.4455 68.7222 74.1537 68.9173 71.4712 67.4541L80.1529 72.868L80.4455 68.7222Z" fill="#CF3E83"/>
<path fill-rule="evenodd" clip-rule="evenodd" d="M66.6428 56.1869C68.6425 59.3572 67.8133 63.503 66.6916 65.9416C66.3014 66.7708 63.8139 73.7942 63.4725 74.1356C62.0581 75.3549 79.2751 82.866 79.2751 82.866L80.3969 68.7217C85.3718 69.0144 91.2246 68.7705 94.4437 66.6245C104.003 60.2351 104.589 38.1895 104.442 37.0677L96.3946 28.0934C96.3946 28.0934 82.2503 22.7771 80.3969 25.167C77.0315 29.5078 71.1787 48.7246 65.4722 46.481C65.4722 46.481 66.2038 40.4331 61.1314 40.4331C57.3758 40.4331 56.3516 43.457 56.3516 45.2129C56.4003 51.0657 64.009 51.9436 66.6428 56.1869Z" fill="#6FE4E8"/>
<path d="M87.0298 60.4792C87.0298 60.4792 89.3709 58.7721 92.8826 60.8206C92.8826 60.8206 89.9074 56.3335 87.0298 60.4792Z" fill="white"/>
<path opacity="0.4018" fill-rule="evenodd" clip-rule="evenodd" d="M80.3967 68.7222C80.3967 68.7222 74.1049 68.9173 71.4224 67.4541L80.1041 72.868L80.3967 68.7222Z" fill="black"/>
<path fill-rule="evenodd" clip-rule="evenodd" d="M122.586 413.112C121.659 407.015 120.781 380.628 117.221 344.975C114.733 320.003 112.441 296.689 111.563 287.666L103.467 196.069L96.2482 146.954L55.2785 146.32C55.2785 146.32 46.987 150.271 39.8173 171.78C30.1601 200.556 40.7439 260.645 40.7439 260.645L44.5971 287.617L55.6686 413.112H65.3746L73.9587 215.384C74.105 212.604 78.1532 212.408 78.5434 215.189L87.3714 286.447L113.417 413.112H122.586Z" fill="#1D184C"/>
<path fill-rule="evenodd" clip-rule="evenodd" d="M96.0526 52.1387C96.0526 52.1387 94.9308 55.5528 91.1265 53.6994C91.1265 53.6994 95.6136 57.5038 96.0526 52.1387Z" fill="#043778"/>
<path fill-rule="evenodd" clip-rule="evenodd" d="M90.0051 46.8225C89.9075 48.3344 89.0296 49.505 88.0054 49.4562C86.9811 49.4075 86.2007 48.1394 86.2983 46.5786C86.3958 45.0666 87.2738 43.8961 88.298 43.9448C89.3222 43.9936 90.1026 45.2617 90.0051 46.8225Z" fill="#223A75"/>
<path fill-rule="evenodd" clip-rule="evenodd" d="M100.589 46.8225C100.492 48.3344 99.6136 49.505 98.5893 49.4562C97.5651 49.4075 96.7847 48.1394 96.8823 46.5786C96.9798 45.0666 97.8577 43.8961 98.882 43.9448C99.9062 43.9936 100.638 45.2617 100.589 46.8225Z" fill="#223A75"/>
<path fill-rule="evenodd" clip-rule="evenodd" d="M82.0547 44.9691C82.0547 44.9691 83.1277 38.0433 88.7854 40.0918C88.8342 40.0918 84.2007 39.2626 82.0547 44.9691Z" fill="#223A75"/>
<path fill-rule="evenodd" clip-rule="evenodd" d="M109.612 31.2638C109.612 13.998 94.1998 0 75.1781 0C68.3986 0 62.058 1.75585 56.7417 4.82858C54.8395 3.65801 52.6447 2.87764 50.3036 2.53622C49.5232 2.43868 48.7428 2.3899 47.9625 2.3899C39.671 2.3899 32.4037 8.53537 31.2331 16.9244C30.8917 19.4119 31.0868 21.8505 31.7696 24.1429C23.3318 25.0696 16.2109 31.654 14.9915 40.3845C14.3087 45.1643 15.5281 49.7978 18.0155 53.5533C8.84608 56.7236 1.72514 64.7712 0.261938 74.9649C-1.78655 89.4506 8.40712 102.961 22.8929 105.009L48.3039 108.57C53.0349 109.253 57.8635 106.814 62.2531 103.254C71.0811 96.0838 71.3737 83.0613 63.6675 74.721C63.57 74.5747 63.4724 74.4772 63.4237 74.3796C68.0084 73.2091 71.4225 69.0633 71.4225 64.1372V64.0884C71.4225 63.4544 71.3737 62.8691 71.2762 62.2838C70.6909 58.7233 68.301 55.7969 65.1307 54.3825C61.8629 51.5048 56.449 50.0904 56.4003 45.1155C56.4003 43.3597 57.4245 40.3357 61.1801 40.3357C66.2525 40.3357 65.5209 46.3836 65.5209 46.3836C71.2274 48.6272 77.0802 29.4104 80.4456 25.0208C80.6895 24.7282 81.0309 24.5819 81.5674 24.4843C81.6162 24.7282 81.7137 25.0208 81.8113 25.3135C82.5429 27.6546 83.6647 29.8006 85.0791 31.654C85.2742 31.8979 85.4693 32.1418 85.6644 32.3368C86.9813 33.8488 88.4933 35.1657 90.2003 36.2387C94.2973 38.8237 99.321 40.0431 104.442 39.409C104.345 41.7501 104.003 45.3594 103.223 49.31C107.222 44.3351 109.612 38.0434 109.612 31.2638Z" fill="#274286"/>
<path fill-rule="evenodd" clip-rule="evenodd" d="M109.466 28.6301C101.955 4.82858 76.8853 4.0482 66.7892 11.9983C55.5225 20.8751 47.3773 4.14575 43.3779 16.0953C39.3784 28.0448 36.7934 27.7034 27.0875 39.7504C17.3816 51.7975 39.1833 54.9678 19.9666 63.747C5.82224 70.2339 9.7729 90.9626 12.8944 101.498C4.06639 96.1326 -1.24992 85.8414 0.310834 75.0137C1.72527 64.82 8.89497 56.7236 18.0644 53.6021C15.5769 49.8465 14.4064 45.2131 15.0404 40.4333C16.2598 31.654 23.3807 25.1184 31.8185 24.1917C31.1357 21.8993 30.8918 19.4606 31.282 16.9732C32.4038 8.53537 39.7198 2.3899 47.9626 2.3899C48.7429 2.3899 49.5233 2.43868 50.3037 2.53622C52.6448 2.87764 54.7909 3.65801 56.7418 4.82858C62.0581 1.75585 68.3987 0 75.1782 0C93.2244 0 108.003 12.5836 109.466 28.6301Z" fill="#223A75"/>
<path fill-rule="evenodd" clip-rule="evenodd" d="M79.6651 78.1353C79.6651 78.1353 87.1274 80.3301 87.0787 82.4273C87.0299 84.5246 86.2983 88.963 86.2983 88.963L79.2749 82.9151L79.6651 78.1353Z" fill="#0074DD"/>
<path d="M61.6189 101.936C56.4977 109.204 51.4252 116.617 46.5478 124.031C45.3285 125.884 44.1092 127.738 42.9874 129.591C42.4021 130.518 41.8656 131.444 41.2803 132.322C41.0364 132.761 40.7438 133.2 40.4999 133.639C40.3536 133.834 40.2561 134.078 40.1585 134.225L40.0122 134.517L39.9146 134.761L39.8171 134.956L39.7683 135.054L39.7196 135.2L39.622 135.541L39.4269 136.224L39.2318 136.956C39.0855 137.444 38.988 137.931 38.8416 138.419C38.6953 138.907 38.5978 139.395 38.5002 139.931C38.0613 141.98 37.6711 144.077 37.3297 146.223C35.964 154.807 35.1348 163.684 34.6471 172.512C34.4032 176.95 34.2081 181.34 34.2081 185.778C34.2081 187.973 34.2081 190.168 34.3057 192.314C34.3545 193.387 34.4032 194.46 34.5008 195.484C34.5496 195.972 34.5983 196.508 34.6959 196.947C34.7447 197.191 34.7447 197.435 34.7934 197.63L34.891 198.215L28.209 200.264L27.9164 199.24C27.8188 198.898 27.77 198.606 27.6725 198.264C27.5262 197.63 27.4286 197.045 27.2823 196.411C27.0872 195.24 26.8921 194.07 26.7458 192.899C26.4532 190.558 26.2093 188.266 26.063 186.022C25.7216 181.437 25.4777 176.901 25.3801 172.317C25.2338 167.781 25.2338 163.196 25.2826 158.611C25.3801 154.027 25.5265 149.442 25.8679 144.808C26.063 142.467 26.2581 140.175 26.5995 137.785C26.697 137.2 26.7458 136.614 26.8433 135.98C26.9409 135.395 27.0384 134.761 27.1848 134.127L27.3798 133.2L27.5749 132.225L27.6725 131.737L27.7213 131.493L27.77 131.396L27.8188 131.201C27.9164 130.908 28.0139 130.664 28.0627 130.371L28.3065 129.786C28.3553 129.591 28.4529 129.396 28.5016 129.25L28.6967 128.762C28.8431 128.42 28.9894 128.128 29.0869 127.835C29.3308 127.25 29.6234 126.713 29.8673 126.177C30.4038 125.104 30.8915 124.031 31.4281 123.007C32.5011 120.958 33.5741 118.91 34.6471 116.91C38.988 108.862 43.3776 101.059 47.9135 93.1572L61.6189 101.936Z" fill="#6AACED"/>
<path d="M103.417 154.173C103.417 154.466 103.466 154.807 103.466 155.1L104.247 167.781C104.783 176.219 105.32 191.68 106.149 200.167L111.27 200.313C112.441 191.778 115.074 176.365 115.66 167.781C115.952 163.489 116.147 159.246 116.245 154.905C116.245 154.661 116.245 154.417 116.245 154.173H103.417Z" fill="#6FE4E8"/>
<path d="M34.5983 196.85C34.5007 196.411 34.5007 195.875 34.4032 195.387C34.3056 194.363 34.2569 193.29 34.2081 192.217C34.1105 190.071 34.1105 187.876 34.1105 185.681C34.1593 181.291 34.3056 176.853 34.5495 172.415C34.8909 166.318 35.4274 160.221 36.159 154.173H25.3313C25.2825 155.637 25.2338 157.1 25.2338 158.563C25.185 163.148 25.185 167.684 25.3313 172.268C25.4776 176.804 25.6727 181.389 26.0141 185.974C26.2092 188.266 26.4043 190.558 26.697 192.851C26.8433 194.021 27.0384 195.192 27.2335 196.362C27.3798 196.996 27.4286 197.533 27.6237 198.216C27.7212 198.557 27.77 198.85 27.8675 199.191L28.1602 200.216L34.8421 198.167L34.7446 197.582C34.647 197.338 34.5983 197.045 34.5983 196.85Z" fill="#6FE4E8"/>
<path fill-rule="evenodd" clip-rule="evenodd" d="M63.6669 74.7698C71.4219 83.11 71.0805 96.1326 62.2525 103.302C57.8628 106.863 52.9855 109.301 48.3032 108.619L35.9148 106.863C33.0371 96.913 35.7197 82.1346 42.9869 74.4284C50.498 66.4783 59.6675 67.2099 69.5197 70.2826C68.1053 72.3311 65.9593 73.7943 63.4718 74.4284C63.4718 74.5259 63.5206 74.6235 63.6669 74.7698Z" fill="#274286"/>
<path fill-rule="evenodd" clip-rule="evenodd" d="M21.7227 152.759C21.7227 152.759 38.0618 152.271 38.3057 153.246C38.5496 154.271 39.525 162.611 37.379 162.367C35.233 162.123 20.1132 162.123 21.0886 158.953C22.0641 155.734 21.7227 152.759 21.7227 152.759Z" fill="#0074DD"/>
<path fill-rule="evenodd" clip-rule="evenodd" d="M99.8574 148.954C99.8574 148.954 117.855 147.15 118.196 148.125C118.538 149.101 120.391 157.295 118.05 157.246C115.709 157.197 98.9795 158.368 99.7598 155.1C100.54 151.881 99.8574 148.954 99.8574 148.954Z" fill="#0074DD"/>
<path opacity="0.1959" d="M100.491 101.693C106.881 119.983 100.735 126.08 97.4675 138.712C97.3212 139.248 97.2236 139.736 97.0773 140.322C97.0773 140.37 97.0773 140.419 97.0285 140.468C96.492 142.76 96.1018 145.248 95.9067 148.077" stroke="black" stroke-width="3"/>
<path fill-rule="evenodd" clip-rule="evenodd" d="M53.9616 412.917L64.4967 412.38C65.1795 412.331 65.716 412.868 65.8136 413.502L66.8866 425.939C66.9354 426.671 66.3989 427.305 65.6673 427.305H40.7928C39.8173 427.305 39.232 426.28 39.7197 425.451C45.3775 415.745 52.6447 413.307 53.7177 412.965C53.7665 412.917 53.8641 412.917 53.9616 412.917Z" fill="#D15E8A"/>
<path fill-rule="evenodd" clip-rule="evenodd" d="M66.8378 425.939C66.8865 426.671 66.35 427.305 65.6184 427.305H40.7439C39.7685 427.305 39.1832 426.28 39.6709 425.451C40.2562 424.427 40.8903 423.5 41.4755 422.622L66.3988 421.257L66.8378 425.939Z" fill="white"/>
<path fill-rule="evenodd" clip-rule="evenodd" d="M121.854 412.917C123.561 413.356 140.827 418.135 149.948 425.208C150.875 425.939 150.387 427.451 149.216 427.451L113.612 427.5C112.88 427.5 112.343 426.866 112.392 426.183L113.319 413.795C113.368 413.112 113.904 412.624 114.587 412.624L121.61 412.819C121.659 412.868 121.757 412.868 121.854 412.917Z" fill="#D15E8A"/>
<path fill-rule="evenodd" clip-rule="evenodd" d="M149.948 425.207C148.923 424.427 147.85 423.695 146.68 422.964L112.636 422.037L112.343 426.183C112.294 426.914 112.88 427.5 113.563 427.5L149.167 427.451C150.387 427.451 150.874 425.939 149.948 425.207Z" fill="white"/>
<path d="M53.1812 413.404C53.1812 413.404 55.376 413.551 55.376 416.282" stroke="white" stroke-miterlimit="10" stroke-linecap="round"/>
<path d="M51.1812 414.233C51.1812 414.233 53.376 414.38 53.376 417.111" stroke="white" stroke-miterlimit="10" stroke-linecap="round"/>
<path d="M49.2305 415.209C49.2305 415.209 51.4253 415.355 51.4253 418.087" stroke="white" stroke-miterlimit="10" stroke-linecap="round"/>
<path d="M123.074 413.404C123.074 413.404 120.879 413.551 120.879 416.282" stroke="white" stroke-miterlimit="10" stroke-linecap="round"/>
<path d="M125.073 414.233C125.073 414.233 122.878 414.38 122.878 417.111" stroke="white" stroke-miterlimit="10" stroke-linecap="round"/>
<path d="M127.073 415.209C127.073 415.209 124.878 415.355 124.878 418.087" stroke="white" stroke-miterlimit="10" stroke-linecap="round"/>
<path d="M28.1118 200.166C28.1118 200.166 30.648 221.627 33.233 212.506C37.7202 196.606 37.2812 199.825 34.5987 196.85C31.8674 193.875 28.1118 200.166 28.1118 200.166Z" fill="#6FE4E8"/>
<path d="M111.27 199.923C111.27 199.923 115.757 218.066 113.172 219.969C110.587 221.871 104.393 216.506 106.149 199.825L111.27 199.923Z" fill="#6FE4E8"/>
</svg>
