<svg width="133" height="428" viewBox="0 0 133 428" fill="none" xmlns="http://www.w3.org/2000/svg">
<path fill-rule="evenodd" clip-rule="evenodd" d="M102.357 49.9931C102.357 53.521 101.986 56.956 101.29 60.2981C96.555 82.9505 76.4556 90.7025 52.3642 90.7025C24.7914 90.7025 2.37109 77.6124 2.37109 49.9931C2.37109 22.3739 24.7914 0 52.3642 0C71.3496 0 87.8747 10.5835 96.3229 26.1338C100.176 33.2359 102.357 41.3592 102.357 49.9931Z" fill="#274286"/>
<path fill-rule="evenodd" clip-rule="evenodd" d="M60.9517 83.2284C60.9517 83.2284 54.9637 83.4141 52.4106 82.0215L60.6732 87.174L60.9517 83.2284Z" fill="#CF3E83"/>
<path fill-rule="evenodd" clip-rule="evenodd" d="M58.9559 45.3047C64.8047 50.3179 73.4386 55.0062 83.6043 58.2091C82.9544 65.0791 80.8192 76.916 74.3205 81.2329C71.2569 83.2753 65.6866 83.5074 60.9519 83.2289L59.8843 96.6904L45.7729 91.1665C45.7729 91.1665 49.3008 74.7807 47.3976 71.7635C44.8445 67.725 38.1138 66.3789 38.0674 60.8086C38.0674 59.1375 39.0422 56.2595 42.6164 56.2595C47.444 56.2595 46.7477 62.0155 46.7477 62.0155C51.2039 63.7794 55.7066 51.989 58.9559 45.3047Z" fill="#6FE4E8"/>
<path opacity="0.399" fill-rule="evenodd" clip-rule="evenodd" d="M60.9517 83.2284C60.9517 83.2284 54.9637 83.4141 52.4106 82.0215L60.6732 87.174L60.9517 83.2284Z" fill="black"/>
<path d="M67.0327 75.9407C67.0327 75.9407 69.2608 74.3161 72.603 76.2657C72.603 76.2657 69.7714 71.9951 67.0327 75.9407Z" fill="white"/>
<path fill-rule="evenodd" clip-rule="evenodd" d="M75.6204 68.0039C75.6204 68.0039 74.5528 71.2532 70.9321 69.4893C70.9321 69.4893 75.2027 73.11 75.6204 68.0039Z" fill="#043778"/>
<path fill-rule="evenodd" clip-rule="evenodd" d="M69.8643 62.8983C69.7715 64.3373 68.9359 65.4514 67.9611 65.4049C66.9863 65.3585 66.2436 64.1516 66.3365 62.6662C66.4293 61.2272 67.2648 60.1132 68.2396 60.1596C69.2144 60.2524 69.9571 61.4593 69.8643 62.8983Z" fill="#223A75"/>
<path fill-rule="evenodd" clip-rule="evenodd" d="M79.937 62.8983C79.8442 64.3373 79.0087 65.4514 78.0339 65.4049C77.0591 65.3585 76.3164 64.1516 76.4092 62.6662C76.502 61.2272 77.3376 60.1132 78.3124 60.1596C79.2872 60.2524 79.9835 61.4593 79.937 62.8983Z" fill="#223A75"/>
<path fill-rule="evenodd" clip-rule="evenodd" d="M62.2979 61.1802C62.2979 61.1802 63.3191 54.5887 68.7037 56.5383C68.7501 56.5383 64.3403 55.7492 62.2979 61.1802Z" fill="#223A75"/>
<path fill-rule="evenodd" clip-rule="evenodd" d="M110.086 126.187C109.762 123.17 109.669 119.595 110.597 118.296C112.361 115.928 120.995 108.78 120.995 108.78L121.459 114.721L123.501 107.712C123.501 107.712 125.776 108.362 127.958 109.523C129.907 110.544 131.764 112.029 132.6 112.586C133.76 113.422 130.371 126.141 127.958 128.415C126.287 129.993 121.413 131.2 118.535 131.804C113.011 140.762 98.2496 163.09 90.1263 161.233C81.6781 159.33 73.7869 129.715 73.7869 129.715L88.0839 122.752L94.304 141.923L110.086 126.187ZM13.071 191.034L16.5524 199.9C16.5524 199.9 17.063 202.175 17.3879 204.913C17.6664 207.606 17.8057 209.277 19.5696 213.315C20.8229 216.147 16.7845 215.311 15.624 213.733C14.4635 212.108 13.8601 205.424 11.9105 206.77C9.96089 208.116 9.40386 214.801 9.82163 221.16C9.86805 222.135 9.21819 222.97 8.70758 223.249C7.91846 223.713 6.71157 219.767 6.71157 219.767C6.71157 219.767 6.2938 221.16 4.99407 220.557C4.52988 220.371 3.18373 217.679 3.18373 217.679C3.18373 217.679 2.16252 216.379 1.60549 214.893C0.630695 212.294 -0.158426 207.466 0.0272495 206.074C0.445019 202.732 1.46623 197.115 2.76596 194.005C1.97684 185.974 -0.947547 153.806 0.677114 147.679C2.53387 140.67 6.20096 131.2 6.20096 131.2L20.2195 139.416L14.2314 152.228L13.071 191.034ZM61.4859 91.1407C61.4859 91.1407 65.2458 93.7866 68.0309 98.5213C71.8373 104.974 69.8413 110.544 63.9925 110.59C57.6795 110.59 50.4846 108.455 47.4209 98.9391C45.8891 94.1115 44.4037 90.3516 44.4037 90.3516L61.4859 91.1407Z" fill="#6FE4E8"/>
<path fill-rule="evenodd" clip-rule="evenodd" d="M128.259 109.78C126.96 109.038 125.753 108.481 125.149 108.62C124.082 108.852 126.031 111.637 127.424 113.447V113.494C125.149 114.422 122.179 115.768 121.714 116.743C121.389 117.439 122.689 117.672 124.314 117.672C122.828 118.368 121.529 119.157 121.25 119.76C120.879 120.55 122.689 120.735 124.639 120.689C122.921 121.478 121.297 122.36 120.972 123.056C120.554 123.938 122.875 124.077 125.057 123.985L124.5 126.445C124.314 127.187 123.618 127.744 122.875 127.698L114.473 127.327C113.452 127.28 112.756 126.352 112.988 125.377L118.929 99.3361C119.115 98.5934 119.811 98.0364 120.554 98.0828L128.956 98.4541C129.977 98.5006 130.673 99.4289 130.441 100.404L128.259 109.78Z" fill="#020101"/>
<path fill-rule="evenodd" clip-rule="evenodd" d="M129.977 110.849C128.213 109.688 126.031 108.435 125.15 108.621C124.082 108.853 126.078 111.684 127.47 113.495C125.196 114.423 122.179 115.769 121.715 116.791C121.39 117.487 122.689 117.719 124.314 117.719C122.829 118.415 121.529 119.204 121.25 119.808C120.879 120.597 122.689 120.783 124.639 120.736C122.921 121.525 121.297 122.407 120.972 123.103C120.415 124.31 124.685 124.125 127.053 123.893L126.449 126.538C126.264 127.281 125.567 127.838 124.825 127.792L116.423 127.42C115.402 127.374 114.705 126.446 114.937 125.471L120.879 99.4298C121.065 98.6871 121.761 98.1301 122.504 98.1765L130.905 98.5479C131.927 98.5943 132.623 99.5227 132.391 100.497L129.977 110.849Z" fill="#5E93D1"/>
<mask id="mask0" mask-type="alpha" maskUnits="userSpaceOnUse" x="114" y="98" width="19" height="30">
<path fill-rule="evenodd" clip-rule="evenodd" d="M129.977 110.849C128.213 109.688 126.031 108.435 125.15 108.621C124.082 108.853 126.078 111.684 127.47 113.495C125.196 114.423 122.179 115.769 121.715 116.791C121.39 117.487 122.689 117.719 124.314 117.719C122.829 118.415 121.529 119.204 121.25 119.808C120.879 120.597 122.689 120.783 124.639 120.736C122.921 121.525 121.297 122.407 120.972 123.103C120.415 124.31 124.685 124.125 127.053 123.893L126.449 126.538C126.264 127.281 125.567 127.838 124.825 127.792L116.423 127.42C115.402 127.374 114.705 126.446 114.937 125.471L120.879 99.4298C121.065 98.6871 121.761 98.1301 122.504 98.1765L130.905 98.5479C131.927 98.5943 132.623 99.5227 132.391 100.497L129.977 110.849Z" fill="white"/>
</mask>
<g mask="url(#mask0)">
<path d="M132.344 97.4805H114.705V129.045H132.344V97.4805Z" fill="#5E93D1"/>
</g>
<path fill-rule="evenodd" clip-rule="evenodd" d="M122.968 101.75C122.782 102.586 122.271 103.189 121.854 103.097C121.436 103.004 121.25 102.215 121.436 101.379C121.621 100.543 122.132 99.94 122.55 100.033C122.968 100.126 123.153 100.868 122.968 101.75Z" fill="#020101"/>
<path fill-rule="evenodd" clip-rule="evenodd" d="M121.993 106.161C121.807 106.996 121.297 107.6 120.879 107.507C120.461 107.414 120.275 106.625 120.461 105.789C120.647 104.954 121.157 104.35 121.575 104.443C121.993 104.536 122.179 105.279 121.993 106.161Z" fill="#020101"/>
<path fill-rule="evenodd" clip-rule="evenodd" d="M44.3709 90.2852C44.3709 90.2852 45.8099 94.0451 47.3881 98.8727C50.4518 108.389 57.6467 110.57 63.9596 110.524C69.8548 110.524 71.8509 104.954 67.9981 98.4549C65.5379 94.2772 62.335 91.7706 61.6387 91.2135C69.0657 91.7241 73.7076 92.6525 77.9781 96.6445C86.1479 104.304 92.7394 118.369 95.4317 132.294L80.5312 138.932L75.2394 159.496L36.2476 158.892C36.2476 158.892 36.5725 155.132 35.737 149.701C34.6229 142.646 30.6773 137.354 30.6773 137.354L26.7781 143.296L2.4082 128.906C10.3923 114.33 21.5328 99.3368 28.9598 94.5557C34.2051 91.1671 38.9863 90.3316 43.721 90.2852" fill="#CE3D29"/>
<path opacity="0.203" d="M75.3882 159.866C76.8736 140.974 86.7144 136.471 79.2874 115.258" stroke="black" stroke-width="3"/>
<path opacity="0.2021" d="M61.4625 91.1212C61.4625 91.1212 65.2225 93.767 68.0076 98.5018C71.8139 104.954 69.8179 110.524 63.9691 110.571C57.6562 110.571 50.4612 108.435 47.3976 98.9195C45.8658 94.092 44.3804 90.332 44.3804 90.332" stroke="black" stroke-width="3"/>
<path opacity="0.203" d="M40.7133 124.078L31.6616 137.772" stroke="black" stroke-width="3"/>
<path fill-rule="evenodd" clip-rule="evenodd" d="M100.547 413.407C99.6653 407.605 98.8297 382.492 95.4412 348.56C93.0738 324.794 90.8921 302.606 90.0566 294.018L82.3046 206.843L75.4346 159.1L36.4428 158.496C36.4428 158.496 28.5515 163.256 21.728 183.727C12.537 211.114 22.6099 268.302 22.6099 268.302L26.277 293.972L36.8141 413.407H46.0515L54.2212 225.272C54.3605 222.626 58.2132 222.44 58.5846 225.086L66.9864 292.904L91.7741 413.454H100.547V413.407Z" fill="#1D184C"/>
<path fill-rule="evenodd" clip-rule="evenodd" d="M35.2358 413.176L45.2623 412.665C45.9122 412.619 46.4228 413.129 46.5156 413.733L47.5368 425.569C47.5832 426.266 47.0726 426.869 46.3763 426.869H22.7027C21.7743 426.869 21.2173 425.894 21.6815 425.105C27.0661 415.868 33.9825 413.547 35.0037 413.222C35.0501 413.222 35.143 413.222 35.2358 413.176Z" fill="#D15E8A"/>
<path fill-rule="evenodd" clip-rule="evenodd" d="M47.4904 425.616C47.5368 426.313 47.0262 426.916 46.33 426.916H22.6563C21.7279 426.916 21.1709 425.941 21.6351 425.152C22.1921 424.177 22.7956 423.295 23.3526 422.46L47.0727 421.16L47.4904 425.616Z" fill="white"/>
<path fill-rule="evenodd" clip-rule="evenodd" d="M99.851 413.222C101.476 413.64 117.908 418.189 126.588 424.919C127.47 425.616 127.006 427.055 125.892 427.055L92.0062 427.101C91.3099 427.101 90.7993 426.498 90.8457 425.848L91.7277 414.057C91.7741 413.408 92.2847 412.943 92.9346 412.943L99.6189 413.129C99.6653 413.175 99.7581 413.175 99.851 413.222Z" fill="#D15E8A"/>
<path fill-rule="evenodd" clip-rule="evenodd" d="M126.589 424.92C125.614 424.177 124.593 423.481 123.478 422.784L91.0781 421.902L90.7996 425.848C90.7532 426.544 91.3102 427.101 91.9601 427.101L125.846 427.055C127.006 427.008 127.471 425.616 126.589 424.92Z" fill="white"/>
<path d="M34.4932 413.687C34.4932 413.687 36.582 413.826 36.582 416.425" stroke="white" stroke-miterlimit="10" stroke-linecap="round"/>
<path d="M32.5898 414.476C32.5898 414.476 34.6787 414.615 34.6787 417.214" stroke="white" stroke-miterlimit="10" stroke-linecap="round"/>
<path d="M30.6865 415.404C30.6865 415.404 32.7754 415.544 32.7754 418.143" stroke="white" stroke-miterlimit="10" stroke-linecap="round"/>
<path d="M101.011 413.687C101.011 413.687 98.9224 413.826 98.9224 416.425" stroke="white" stroke-miterlimit="10" stroke-linecap="round"/>
<path d="M102.915 414.476C102.915 414.476 100.826 414.615 100.826 417.214" stroke="white" stroke-miterlimit="10" stroke-linecap="round"/>
<path d="M104.818 415.404C104.818 415.404 102.729 415.544 102.729 418.143" stroke="white" stroke-miterlimit="10" stroke-linecap="round"/>
</svg>
